<mxfile host="app.diagrams.net" agent="Mozilla/5.0 (Windows NT 10.0; Win64; x64) AppleWebKit/537.36 (KHTML, like Gecko) Chrome/135.0.0.0 Safari/537.36" version="26.2.15">
  <diagram name="Page-1" id="pnD8mrpB47AV5KBbk8wT">
    <mxGraphModel dx="4753" dy="2497" grid="1" gridSize="10" guides="1" tooltips="1" connect="1" arrows="1" fold="1" page="1" pageScale="1" pageWidth="850" pageHeight="1100" math="0" shadow="0">
      <root>
        <mxCell id="0" />
        <mxCell id="1" parent="0" />
        <mxCell id="RaNbdo8rH24mwtOtZHc8-335" value="Main" style="swimlane;fontStyle=1;align=center;verticalAlign=top;childLayout=stackLayout;horizontal=1;startSize=33.142857142857146;horizontalStack=0;resizeParent=1;resizeParentMax=0;resizeLast=0;collapsible=0;marginBottom=0;" vertex="1" parent="1">
          <mxGeometry x="4536" y="20" width="300" height="239.14285714285714" as="geometry" />
        </mxCell>
        <mxCell id="RaNbdo8rH24mwtOtZHc8-336" value="- JFrame frame" style="text;strokeColor=none;fillColor=none;align=left;verticalAlign=top;spacingLeft=4;spacingRight=4;overflow=hidden;rotatable=0;points=[[0,0.5],[1,0.5]];portConstraint=eastwest;" vertex="1" parent="RaNbdo8rH24mwtOtZHc8-335">
          <mxGeometry y="33.142857142857146" width="300" height="33" as="geometry" />
        </mxCell>
        <mxCell id="RaNbdo8rH24mwtOtZHc8-337" value="- JPanel table" style="text;strokeColor=none;fillColor=none;align=left;verticalAlign=top;spacingLeft=4;spacingRight=4;overflow=hidden;rotatable=0;points=[[0,0.5],[1,0.5]];portConstraint=eastwest;" vertex="1" parent="RaNbdo8rH24mwtOtZHc8-335">
          <mxGeometry y="66.14285714285714" width="300" height="33" as="geometry" />
        </mxCell>
        <mxCell id="RaNbdo8rH24mwtOtZHc8-338" value="- GridLayout gridLayout" style="text;strokeColor=none;fillColor=none;align=left;verticalAlign=top;spacingLeft=4;spacingRight=4;overflow=hidden;rotatable=0;points=[[0,0.5],[1,0.5]];portConstraint=eastwest;" vertex="1" parent="RaNbdo8rH24mwtOtZHc8-335">
          <mxGeometry y="99.14285714285714" width="300" height="33" as="geometry" />
        </mxCell>
        <mxCell id="RaNbdo8rH24mwtOtZHc8-339" value="- Database database" style="text;strokeColor=none;fillColor=none;align=left;verticalAlign=top;spacingLeft=4;spacingRight=4;overflow=hidden;rotatable=0;points=[[0,0.5],[1,0.5]];portConstraint=eastwest;" vertex="1" parent="RaNbdo8rH24mwtOtZHc8-335">
          <mxGeometry y="132.14285714285714" width="300" height="33" as="geometry" />
        </mxCell>
        <mxCell id="RaNbdo8rH24mwtOtZHc8-340" style="line;strokeWidth=1;fillColor=none;align=left;verticalAlign=middle;spacingTop=-1;spacingLeft=3;spacingRight=3;rotatable=0;labelPosition=right;points=[];portConstraint=eastwest;strokeColor=inherit;" vertex="1" parent="RaNbdo8rH24mwtOtZHc8-335">
          <mxGeometry y="165.14285714285714" width="300" height="8" as="geometry" />
        </mxCell>
        <mxCell id="RaNbdo8rH24mwtOtZHc8-341" value="+ main(String[] args)" style="text;strokeColor=none;fillColor=none;align=left;verticalAlign=top;spacingLeft=4;spacingRight=4;overflow=hidden;rotatable=0;points=[[0,0.5],[1,0.5]];portConstraint=eastwest;" vertex="1" parent="RaNbdo8rH24mwtOtZHc8-335">
          <mxGeometry y="173.14285714285714" width="300" height="33" as="geometry" />
        </mxCell>
        <mxCell id="RaNbdo8rH24mwtOtZHc8-342" value="+ refreshTable(ArrayList&lt;Trip&gt; trips)" style="text;strokeColor=none;fillColor=none;align=left;verticalAlign=top;spacingLeft=4;spacingRight=4;overflow=hidden;rotatable=0;points=[[0,0.5],[1,0.5]];portConstraint=eastwest;" vertex="1" parent="RaNbdo8rH24mwtOtZHc8-335">
          <mxGeometry y="206.14285714285714" width="300" height="33" as="geometry" />
        </mxCell>
        <mxCell id="RaNbdo8rH24mwtOtZHc8-343" value="ModifyList" style="swimlane;fontStyle=1;align=center;verticalAlign=top;childLayout=stackLayout;horizontal=1;startSize=47.2;horizontalStack=0;resizeParent=1;resizeParentMax=0;resizeLast=0;collapsible=0;marginBottom=0;" vertex="1" parent="1">
          <mxGeometry x="2606" y="310" width="430" height="102.2" as="geometry" />
        </mxCell>
        <mxCell id="RaNbdo8rH24mwtOtZHc8-344" style="line;strokeWidth=1;fillColor=none;align=left;verticalAlign=middle;spacingTop=-1;spacingLeft=3;spacingRight=3;rotatable=0;labelPosition=right;points=[];portConstraint=eastwest;strokeColor=inherit;" vertex="1" parent="RaNbdo8rH24mwtOtZHc8-343">
          <mxGeometry y="47.2" width="430" height="8" as="geometry" />
        </mxCell>
        <mxCell id="RaNbdo8rH24mwtOtZHc8-345" value="+ ModifyList(JFrame oldFrame, Database database)" style="text;strokeColor=none;fillColor=none;align=left;verticalAlign=top;spacingLeft=4;spacingRight=4;overflow=hidden;rotatable=0;points=[[0,0.5],[1,0.5]];portConstraint=eastwest;" vertex="1" parent="RaNbdo8rH24mwtOtZHc8-343">
          <mxGeometry y="55.2" width="430" height="47" as="geometry" />
        </mxCell>
        <mxCell id="RaNbdo8rH24mwtOtZHc8-346" value="AddEmployee" style="swimlane;fontStyle=1;align=center;verticalAlign=top;childLayout=stackLayout;horizontal=1;startSize=47.2;horizontalStack=0;resizeParent=1;resizeParentMax=0;resizeLast=0;collapsible=0;marginBottom=0;" vertex="1" parent="1">
          <mxGeometry x="1901" y="498" width="446" height="102.2" as="geometry" />
        </mxCell>
        <mxCell id="RaNbdo8rH24mwtOtZHc8-347" style="line;strokeWidth=1;fillColor=none;align=left;verticalAlign=middle;spacingTop=-1;spacingLeft=3;spacingRight=3;rotatable=0;labelPosition=right;points=[];portConstraint=eastwest;strokeColor=inherit;" vertex="1" parent="RaNbdo8rH24mwtOtZHc8-346">
          <mxGeometry y="47.2" width="446" height="8" as="geometry" />
        </mxCell>
        <mxCell id="RaNbdo8rH24mwtOtZHc8-348" value="+ AddEmployee(JFrame parent, Database database)" style="text;strokeColor=none;fillColor=none;align=left;verticalAlign=top;spacingLeft=4;spacingRight=4;overflow=hidden;rotatable=0;points=[[0,0.5],[1,0.5]];portConstraint=eastwest;" vertex="1" parent="RaNbdo8rH24mwtOtZHc8-346">
          <mxGeometry y="55.2" width="446" height="47" as="geometry" />
        </mxCell>
        <mxCell id="RaNbdo8rH24mwtOtZHc8-349" value="EditEmployee" style="swimlane;fontStyle=1;align=center;verticalAlign=top;childLayout=stackLayout;horizontal=1;startSize=47.2;horizontalStack=0;resizeParent=1;resizeParentMax=0;resizeLast=0;collapsible=0;marginBottom=0;" vertex="1" parent="1">
          <mxGeometry x="2811" y="498" width="448" height="102.2" as="geometry" />
        </mxCell>
        <mxCell id="RaNbdo8rH24mwtOtZHc8-350" style="line;strokeWidth=1;fillColor=none;align=left;verticalAlign=middle;spacingTop=-1;spacingLeft=3;spacingRight=3;rotatable=0;labelPosition=right;points=[];portConstraint=eastwest;strokeColor=inherit;" vertex="1" parent="RaNbdo8rH24mwtOtZHc8-349">
          <mxGeometry y="47.2" width="448" height="8" as="geometry" />
        </mxCell>
        <mxCell id="RaNbdo8rH24mwtOtZHc8-351" value="+ EditEmployee(JFrame parent, Database database)" style="text;strokeColor=none;fillColor=none;align=left;verticalAlign=top;spacingLeft=4;spacingRight=4;overflow=hidden;rotatable=0;points=[[0,0.5],[1,0.5]];portConstraint=eastwest;" vertex="1" parent="RaNbdo8rH24mwtOtZHc8-349">
          <mxGeometry y="55.2" width="448" height="47" as="geometry" />
        </mxCell>
        <mxCell id="RaNbdo8rH24mwtOtZHc8-352" value="AddPassenger" style="swimlane;fontStyle=1;align=center;verticalAlign=top;childLayout=stackLayout;horizontal=1;startSize=47.2;horizontalStack=0;resizeParent=1;resizeParentMax=0;resizeLast=0;collapsible=0;marginBottom=0;" vertex="1" parent="1">
          <mxGeometry x="3498" y="498" width="447" height="102.2" as="geometry" />
        </mxCell>
        <mxCell id="RaNbdo8rH24mwtOtZHc8-353" style="line;strokeWidth=1;fillColor=none;align=left;verticalAlign=middle;spacingTop=-1;spacingLeft=3;spacingRight=3;rotatable=0;labelPosition=right;points=[];portConstraint=eastwest;strokeColor=inherit;" vertex="1" parent="RaNbdo8rH24mwtOtZHc8-352">
          <mxGeometry y="47.2" width="447" height="8" as="geometry" />
        </mxCell>
        <mxCell id="RaNbdo8rH24mwtOtZHc8-354" value="+ AddPassenger(JFrame parent, Database database)" style="text;strokeColor=none;fillColor=none;align=left;verticalAlign=top;spacingLeft=4;spacingRight=4;overflow=hidden;rotatable=0;points=[[0,0.5],[1,0.5]];portConstraint=eastwest;" vertex="1" parent="RaNbdo8rH24mwtOtZHc8-352">
          <mxGeometry y="55.2" width="447" height="47" as="geometry" />
        </mxCell>
        <mxCell id="RaNbdo8rH24mwtOtZHc8-355" value="EditPassenger" style="swimlane;fontStyle=1;align=center;verticalAlign=top;childLayout=stackLayout;horizontal=1;startSize=40.57142857142857;horizontalStack=0;resizeParent=1;resizeParentMax=0;resizeLast=0;collapsible=0;marginBottom=0;" vertex="1" parent="1">
          <mxGeometry x="3995" y="486" width="651" height="130.57142857142856" as="geometry" />
        </mxCell>
        <mxCell id="RaNbdo8rH24mwtOtZHc8-356" style="line;strokeWidth=1;fillColor=none;align=left;verticalAlign=middle;spacingTop=-1;spacingLeft=3;spacingRight=3;rotatable=0;labelPosition=right;points=[];portConstraint=eastwest;strokeColor=inherit;" vertex="1" parent="RaNbdo8rH24mwtOtZHc8-355">
          <mxGeometry y="40.57142857142857" width="651" height="8" as="geometry" />
        </mxCell>
        <mxCell id="RaNbdo8rH24mwtOtZHc8-357" value="+ EditPassenger(JFrame parent, Database database)" style="text;strokeColor=none;fillColor=none;align=left;verticalAlign=top;spacingLeft=4;spacingRight=4;overflow=hidden;rotatable=0;points=[[0,0.5],[1,0.5]];portConstraint=eastwest;" vertex="1" parent="RaNbdo8rH24mwtOtZHc8-355">
          <mxGeometry y="48.57142857142857" width="651" height="41" as="geometry" />
        </mxCell>
        <mxCell id="RaNbdo8rH24mwtOtZHc8-358" value="- refreshData(Database, JComboBox&lt;String&gt;, JTextField, JTextField, JTextField)" style="text;strokeColor=none;fillColor=none;align=left;verticalAlign=top;spacingLeft=4;spacingRight=4;overflow=hidden;rotatable=0;points=[[0,0.5],[1,0.5]];portConstraint=eastwest;" vertex="1" parent="RaNbdo8rH24mwtOtZHc8-355">
          <mxGeometry y="89.57142857142857" width="651" height="41" as="geometry" />
        </mxCell>
        <mxCell id="RaNbdo8rH24mwtOtZHc8-359" value="AddTrain" style="swimlane;fontStyle=1;align=center;verticalAlign=top;childLayout=stackLayout;horizontal=1;startSize=47.2;horizontalStack=0;resizeParent=1;resizeParentMax=0;resizeLast=0;collapsible=0;marginBottom=0;" vertex="1" parent="1">
          <mxGeometry x="990" y="498" width="414" height="102.2" as="geometry" />
        </mxCell>
        <mxCell id="RaNbdo8rH24mwtOtZHc8-360" style="line;strokeWidth=1;fillColor=none;align=left;verticalAlign=middle;spacingTop=-1;spacingLeft=3;spacingRight=3;rotatable=0;labelPosition=right;points=[];portConstraint=eastwest;strokeColor=inherit;" vertex="1" parent="RaNbdo8rH24mwtOtZHc8-359">
          <mxGeometry y="47.2" width="414" height="8" as="geometry" />
        </mxCell>
        <mxCell id="RaNbdo8rH24mwtOtZHc8-361" value="+ AddTrain(JFrame oldFrame, Database database)" style="text;strokeColor=none;fillColor=none;align=left;verticalAlign=top;spacingLeft=4;spacingRight=4;overflow=hidden;rotatable=0;points=[[0,0.5],[1,0.5]];portConstraint=eastwest;" vertex="1" parent="RaNbdo8rH24mwtOtZHc8-359">
          <mxGeometry y="55.2" width="414" height="47" as="geometry" />
        </mxCell>
        <mxCell id="RaNbdo8rH24mwtOtZHc8-362" value="EditTrain" style="swimlane;fontStyle=1;align=center;verticalAlign=top;childLayout=stackLayout;horizontal=1;startSize=47.2;horizontalStack=0;resizeParent=1;resizeParentMax=0;resizeLast=0;collapsible=0;marginBottom=0;" vertex="1" parent="1">
          <mxGeometry x="1454" y="498" width="397" height="102.2" as="geometry" />
        </mxCell>
        <mxCell id="RaNbdo8rH24mwtOtZHc8-363" style="line;strokeWidth=1;fillColor=none;align=left;verticalAlign=middle;spacingTop=-1;spacingLeft=3;spacingRight=3;rotatable=0;labelPosition=right;points=[];portConstraint=eastwest;strokeColor=inherit;" vertex="1" parent="RaNbdo8rH24mwtOtZHc8-362">
          <mxGeometry y="47.2" width="397" height="8" as="geometry" />
        </mxCell>
        <mxCell id="RaNbdo8rH24mwtOtZHc8-364" value="+ EditTrain(JFrame parent, Database database)" style="text;strokeColor=none;fillColor=none;align=left;verticalAlign=top;spacingLeft=4;spacingRight=4;overflow=hidden;rotatable=0;points=[[0,0.5],[1,0.5]];portConstraint=eastwest;" vertex="1" parent="RaNbdo8rH24mwtOtZHc8-362">
          <mxGeometry y="55.2" width="397" height="47" as="geometry" />
        </mxCell>
        <mxCell id="RaNbdo8rH24mwtOtZHc8-365" value="AddTrip" style="swimlane;fontStyle=1;align=center;verticalAlign=top;childLayout=stackLayout;horizontal=1;startSize=47.2;horizontalStack=0;resizeParent=1;resizeParentMax=0;resizeLast=0;collapsible=0;marginBottom=0;" vertex="1" parent="1">
          <mxGeometry x="4696" y="498" width="382" height="102.2" as="geometry" />
        </mxCell>
        <mxCell id="RaNbdo8rH24mwtOtZHc8-366" style="line;strokeWidth=1;fillColor=none;align=left;verticalAlign=middle;spacingTop=-1;spacingLeft=3;spacingRight=3;rotatable=0;labelPosition=right;points=[];portConstraint=eastwest;strokeColor=inherit;" vertex="1" parent="RaNbdo8rH24mwtOtZHc8-365">
          <mxGeometry y="47.2" width="382" height="8" as="geometry" />
        </mxCell>
        <mxCell id="RaNbdo8rH24mwtOtZHc8-367" value="+ AddTrip(JFrame parent, Database database)" style="text;strokeColor=none;fillColor=none;align=left;verticalAlign=top;spacingLeft=4;spacingRight=4;overflow=hidden;rotatable=0;points=[[0,0.5],[1,0.5]];portConstraint=eastwest;" vertex="1" parent="RaNbdo8rH24mwtOtZHc8-365">
          <mxGeometry y="55.2" width="382" height="47" as="geometry" />
        </mxCell>
        <mxCell id="RaNbdo8rH24mwtOtZHc8-368" value="EditTrip" style="swimlane;fontStyle=1;align=center;verticalAlign=top;childLayout=stackLayout;horizontal=1;startSize=38;horizontalStack=0;resizeParent=1;resizeParentMax=0;resizeLast=0;collapsible=0;marginBottom=0;" vertex="1" parent="1">
          <mxGeometry x="5128" y="519" width="83" height="57" as="geometry" />
        </mxCell>
        <mxCell id="RaNbdo8rH24mwtOtZHc8-369" style="line;strokeWidth=1;fillColor=none;align=left;verticalAlign=middle;spacingTop=-1;spacingLeft=3;spacingRight=3;rotatable=0;labelPosition=right;points=[];portConstraint=eastwest;strokeColor=inherit;" vertex="1" parent="RaNbdo8rH24mwtOtZHc8-368">
          <mxGeometry y="38" width="83" height="19" as="geometry" />
        </mxCell>
        <mxCell id="RaNbdo8rH24mwtOtZHc8-370" value="ShowTripPassengers" style="swimlane;fontStyle=1;align=center;verticalAlign=top;childLayout=stackLayout;horizontal=1;startSize=38;horizontalStack=0;resizeParent=1;resizeParentMax=0;resizeLast=0;collapsible=0;marginBottom=0;" vertex="1" parent="1">
          <mxGeometry x="5260" y="519" width="173" height="57" as="geometry" />
        </mxCell>
        <mxCell id="RaNbdo8rH24mwtOtZHc8-371" style="line;strokeWidth=1;fillColor=none;align=left;verticalAlign=middle;spacingTop=-1;spacingLeft=3;spacingRight=3;rotatable=0;labelPosition=right;points=[];portConstraint=eastwest;strokeColor=inherit;" vertex="1" parent="RaNbdo8rH24mwtOtZHc8-370">
          <mxGeometry y="38" width="173" height="19" as="geometry" />
        </mxCell>
        <mxCell id="RaNbdo8rH24mwtOtZHc8-372" value="RoundedButton" style="swimlane;fontStyle=1;align=center;verticalAlign=top;childLayout=stackLayout;horizontal=1;startSize=36.888888888888886;horizontalStack=0;resizeParent=1;resizeParentMax=0;resizeLast=0;collapsible=0;marginBottom=0;" vertex="1" parent="1">
          <mxGeometry x="1984" y="782" width="300" height="155.88888888888889" as="geometry" />
        </mxCell>
        <mxCell id="RaNbdo8rH24mwtOtZHc8-373" style="line;strokeWidth=1;fillColor=none;align=left;verticalAlign=middle;spacingTop=-1;spacingLeft=3;spacingRight=3;rotatable=0;labelPosition=right;points=[];portConstraint=eastwest;strokeColor=inherit;" vertex="1" parent="RaNbdo8rH24mwtOtZHc8-372">
          <mxGeometry y="36.888888888888886" width="300" height="8" as="geometry" />
        </mxCell>
        <mxCell id="RaNbdo8rH24mwtOtZHc8-374" value="+ RoundedButton(String text)" style="text;strokeColor=none;fillColor=none;align=left;verticalAlign=top;spacingLeft=4;spacingRight=4;overflow=hidden;rotatable=0;points=[[0,0.5],[1,0.5]];portConstraint=eastwest;" vertex="1" parent="RaNbdo8rH24mwtOtZHc8-372">
          <mxGeometry y="44.888888888888886" width="300" height="37" as="geometry" />
        </mxCell>
        <mxCell id="RaNbdo8rH24mwtOtZHc8-375" value="+ paintComponent(Graphics g)" style="text;strokeColor=none;fillColor=none;align=left;verticalAlign=top;spacingLeft=4;spacingRight=4;overflow=hidden;rotatable=0;points=[[0,0.5],[1,0.5]];portConstraint=eastwest;" vertex="1" parent="RaNbdo8rH24mwtOtZHc8-372">
          <mxGeometry y="81.88888888888889" width="300" height="37" as="geometry" />
        </mxCell>
        <mxCell id="RaNbdo8rH24mwtOtZHc8-376" value="+ paintBorder(Graphics g)" style="text;strokeColor=none;fillColor=none;align=left;verticalAlign=top;spacingLeft=4;spacingRight=4;overflow=hidden;rotatable=0;points=[[0,0.5],[1,0.5]];portConstraint=eastwest;" vertex="1" parent="RaNbdo8rH24mwtOtZHc8-372">
          <mxGeometry y="118.88888888888889" width="300" height="37" as="geometry" />
        </mxCell>
        <mxCell id="RaNbdo8rH24mwtOtZHc8-377" value="GUI" style="swimlane;fontStyle=1;align=center;verticalAlign=top;childLayout=stackLayout;horizontal=1;startSize=36.888888888888886;horizontalStack=0;resizeParent=1;resizeParentMax=0;resizeLast=0;collapsible=0;marginBottom=0;" vertex="1" parent="1">
          <mxGeometry x="3095" y="782" width="409" height="155.88888888888889" as="geometry" />
        </mxCell>
        <mxCell id="RaNbdo8rH24mwtOtZHc8-378" style="line;strokeWidth=1;fillColor=none;align=left;verticalAlign=middle;spacingTop=-1;spacingLeft=3;spacingRight=3;rotatable=0;labelPosition=right;points=[];portConstraint=eastwest;strokeColor=inherit;" vertex="1" parent="RaNbdo8rH24mwtOtZHc8-377">
          <mxGeometry y="36.888888888888886" width="409" height="8" as="geometry" />
        </mxCell>
        <mxCell id="RaNbdo8rH24mwtOtZHc8-379" value="+ JLabel(String text) : : JLabel" style="text;strokeColor=none;fillColor=none;align=left;verticalAlign=top;spacingLeft=4;spacingRight=4;overflow=hidden;rotatable=0;points=[[0,0.5],[1,0.5]];portConstraint=eastwest;" vertex="1" parent="RaNbdo8rH24mwtOtZHc8-377">
          <mxGeometry y="44.888888888888886" width="409" height="37" as="geometry" />
        </mxCell>
        <mxCell id="RaNbdo8rH24mwtOtZHc8-380" value="+ JTextField() : : JTextField" style="text;strokeColor=none;fillColor=none;align=left;verticalAlign=top;spacingLeft=4;spacingRight=4;overflow=hidden;rotatable=0;points=[[0,0.5],[1,0.5]];portConstraint=eastwest;" vertex="1" parent="RaNbdo8rH24mwtOtZHc8-377">
          <mxGeometry y="81.88888888888889" width="409" height="37" as="geometry" />
        </mxCell>
        <mxCell id="RaNbdo8rH24mwtOtZHc8-381" value="+ JComboBox(String[] items) : : JComboBox&lt;String&gt;" style="text;strokeColor=none;fillColor=none;align=left;verticalAlign=top;spacingLeft=4;spacingRight=4;overflow=hidden;rotatable=0;points=[[0,0.5],[1,0.5]];portConstraint=eastwest;" vertex="1" parent="RaNbdo8rH24mwtOtZHc8-377">
          <mxGeometry y="118.88888888888889" width="409" height="37" as="geometry" />
        </mxCell>
        <mxCell id="RaNbdo8rH24mwtOtZHc8-382" value="Employee" style="swimlane;fontStyle=1;align=center;verticalAlign=top;childLayout=stackLayout;horizontal=1;startSize=28.64;horizontalStack=0;resizeParent=1;resizeParentMax=0;resizeLast=0;collapsible=0;marginBottom=0;" vertex="1" parent="1">
          <mxGeometry x="2813" y="686" width="232" height="355.64" as="geometry" />
        </mxCell>
        <mxCell id="RaNbdo8rH24mwtOtZHc8-383" style="line;strokeWidth=1;fillColor=none;align=left;verticalAlign=middle;spacingTop=-1;spacingLeft=3;spacingRight=3;rotatable=0;labelPosition=right;points=[];portConstraint=eastwest;strokeColor=inherit;" vertex="1" parent="RaNbdo8rH24mwtOtZHc8-382">
          <mxGeometry y="28.64" width="232" height="8" as="geometry" />
        </mxCell>
        <mxCell id="RaNbdo8rH24mwtOtZHc8-384" value="+ setID(int)" style="text;strokeColor=none;fillColor=none;align=left;verticalAlign=top;spacingLeft=4;spacingRight=4;overflow=hidden;rotatable=0;points=[[0,0.5],[1,0.5]];portConstraint=eastwest;" vertex="1" parent="RaNbdo8rH24mwtOtZHc8-382">
          <mxGeometry y="36.64" width="232" height="29" as="geometry" />
        </mxCell>
        <mxCell id="RaNbdo8rH24mwtOtZHc8-385" value="+ setName(String)" style="text;strokeColor=none;fillColor=none;align=left;verticalAlign=top;spacingLeft=4;spacingRight=4;overflow=hidden;rotatable=0;points=[[0,0.5],[1,0.5]];portConstraint=eastwest;" vertex="1" parent="RaNbdo8rH24mwtOtZHc8-382">
          <mxGeometry y="65.64" width="232" height="29" as="geometry" />
        </mxCell>
        <mxCell id="RaNbdo8rH24mwtOtZHc8-386" value="+ setEmail(String)" style="text;strokeColor=none;fillColor=none;align=left;verticalAlign=top;spacingLeft=4;spacingRight=4;overflow=hidden;rotatable=0;points=[[0,0.5],[1,0.5]];portConstraint=eastwest;" vertex="1" parent="RaNbdo8rH24mwtOtZHc8-382">
          <mxGeometry y="94.64" width="232" height="29" as="geometry" />
        </mxCell>
        <mxCell id="RaNbdo8rH24mwtOtZHc8-387" value="+ setTel(String)" style="text;strokeColor=none;fillColor=none;align=left;verticalAlign=top;spacingLeft=4;spacingRight=4;overflow=hidden;rotatable=0;points=[[0,0.5],[1,0.5]];portConstraint=eastwest;" vertex="1" parent="RaNbdo8rH24mwtOtZHc8-382">
          <mxGeometry y="123.64" width="232" height="29" as="geometry" />
        </mxCell>
        <mxCell id="RaNbdo8rH24mwtOtZHc8-388" value="+ setSalary(double)" style="text;strokeColor=none;fillColor=none;align=left;verticalAlign=top;spacingLeft=4;spacingRight=4;overflow=hidden;rotatable=0;points=[[0,0.5],[1,0.5]];portConstraint=eastwest;" vertex="1" parent="RaNbdo8rH24mwtOtZHc8-382">
          <mxGeometry y="152.64" width="232" height="29" as="geometry" />
        </mxCell>
        <mxCell id="RaNbdo8rH24mwtOtZHc8-389" value="+ setPosition(String)" style="text;strokeColor=none;fillColor=none;align=left;verticalAlign=top;spacingLeft=4;spacingRight=4;overflow=hidden;rotatable=0;points=[[0,0.5],[1,0.5]];portConstraint=eastwest;" vertex="1" parent="RaNbdo8rH24mwtOtZHc8-382">
          <mxGeometry y="181.64" width="232" height="29" as="geometry" />
        </mxCell>
        <mxCell id="RaNbdo8rH24mwtOtZHc8-390" value="+ getName() : : String" style="text;strokeColor=none;fillColor=none;align=left;verticalAlign=top;spacingLeft=4;spacingRight=4;overflow=hidden;rotatable=0;points=[[0,0.5],[1,0.5]];portConstraint=eastwest;" vertex="1" parent="RaNbdo8rH24mwtOtZHc8-382">
          <mxGeometry y="210.64" width="232" height="29" as="geometry" />
        </mxCell>
        <mxCell id="RaNbdo8rH24mwtOtZHc8-391" value="+ getEmail() : : String" style="text;strokeColor=none;fillColor=none;align=left;verticalAlign=top;spacingLeft=4;spacingRight=4;overflow=hidden;rotatable=0;points=[[0,0.5],[1,0.5]];portConstraint=eastwest;" vertex="1" parent="RaNbdo8rH24mwtOtZHc8-382">
          <mxGeometry y="239.64" width="232" height="29" as="geometry" />
        </mxCell>
        <mxCell id="RaNbdo8rH24mwtOtZHc8-392" value="+ getTel() : : String" style="text;strokeColor=none;fillColor=none;align=left;verticalAlign=top;spacingLeft=4;spacingRight=4;overflow=hidden;rotatable=0;points=[[0,0.5],[1,0.5]];portConstraint=eastwest;" vertex="1" parent="RaNbdo8rH24mwtOtZHc8-382">
          <mxGeometry y="268.64" width="232" height="29" as="geometry" />
        </mxCell>
        <mxCell id="RaNbdo8rH24mwtOtZHc8-393" value="+ getSalary() : : double" style="text;strokeColor=none;fillColor=none;align=left;verticalAlign=top;spacingLeft=4;spacingRight=4;overflow=hidden;rotatable=0;points=[[0,0.5],[1,0.5]];portConstraint=eastwest;" vertex="1" parent="RaNbdo8rH24mwtOtZHc8-382">
          <mxGeometry y="297.64" width="232" height="29" as="geometry" />
        </mxCell>
        <mxCell id="RaNbdo8rH24mwtOtZHc8-394" value="+ getPosition() : : String" style="text;strokeColor=none;fillColor=none;align=left;verticalAlign=top;spacingLeft=4;spacingRight=4;overflow=hidden;rotatable=0;points=[[0,0.5],[1,0.5]];portConstraint=eastwest;" vertex="1" parent="RaNbdo8rH24mwtOtZHc8-382">
          <mxGeometry y="326.64" width="232" height="29" as="geometry" />
        </mxCell>
        <mxCell id="RaNbdo8rH24mwtOtZHc8-395" value="EmployeesDatabase" style="swimlane;fontStyle=1;align=center;verticalAlign=top;childLayout=stackLayout;horizontal=1;startSize=31.733333333333334;horizontalStack=0;resizeParent=1;resizeParentMax=0;resizeLast=0;collapsible=0;marginBottom=0;" vertex="1" parent="1">
          <mxGeometry x="2334" y="746" width="429" height="231.73333333333335" as="geometry" />
        </mxCell>
        <mxCell id="RaNbdo8rH24mwtOtZHc8-396" style="line;strokeWidth=1;fillColor=none;align=left;verticalAlign=middle;spacingTop=-1;spacingLeft=3;spacingRight=3;rotatable=0;labelPosition=right;points=[];portConstraint=eastwest;strokeColor=inherit;" vertex="1" parent="RaNbdo8rH24mwtOtZHc8-395">
          <mxGeometry y="31.733333333333334" width="429" height="8" as="geometry" />
        </mxCell>
        <mxCell id="RaNbdo8rH24mwtOtZHc8-397" value="+ getNextID(Database) : : int" style="text;strokeColor=none;fillColor=none;align=left;verticalAlign=top;spacingLeft=4;spacingRight=4;overflow=hidden;rotatable=0;points=[[0,0.5],[1,0.5]];portConstraint=eastwest;" vertex="1" parent="RaNbdo8rH24mwtOtZHc8-395">
          <mxGeometry y="39.733333333333334" width="429" height="32" as="geometry" />
        </mxCell>
        <mxCell id="RaNbdo8rH24mwtOtZHc8-398" value="+ AddEmployee(Employee, Database)" style="text;strokeColor=none;fillColor=none;align=left;verticalAlign=top;spacingLeft=4;spacingRight=4;overflow=hidden;rotatable=0;points=[[0,0.5],[1,0.5]];portConstraint=eastwest;" vertex="1" parent="RaNbdo8rH24mwtOtZHc8-395">
          <mxGeometry y="71.73333333333333" width="429" height="32" as="geometry" />
        </mxCell>
        <mxCell id="RaNbdo8rH24mwtOtZHc8-399" value="+ getIDs(Database) : : String[]" style="text;strokeColor=none;fillColor=none;align=left;verticalAlign=top;spacingLeft=4;spacingRight=4;overflow=hidden;rotatable=0;points=[[0,0.5],[1,0.5]];portConstraint=eastwest;" vertex="1" parent="RaNbdo8rH24mwtOtZHc8-395">
          <mxGeometry y="103.73333333333333" width="429" height="32" as="geometry" />
        </mxCell>
        <mxCell id="RaNbdo8rH24mwtOtZHc8-400" value="+ getEmployee(String, Database) : : Employee" style="text;strokeColor=none;fillColor=none;align=left;verticalAlign=top;spacingLeft=4;spacingRight=4;overflow=hidden;rotatable=0;points=[[0,0.5],[1,0.5]];portConstraint=eastwest;" vertex="1" parent="RaNbdo8rH24mwtOtZHc8-395">
          <mxGeometry y="135.73333333333335" width="429" height="32" as="geometry" />
        </mxCell>
        <mxCell id="RaNbdo8rH24mwtOtZHc8-401" value="+ EditEmployee(Employee, Database)" style="text;strokeColor=none;fillColor=none;align=left;verticalAlign=top;spacingLeft=4;spacingRight=4;overflow=hidden;rotatable=0;points=[[0,0.5],[1,0.5]];portConstraint=eastwest;" vertex="1" parent="RaNbdo8rH24mwtOtZHc8-395">
          <mxGeometry y="167.73333333333335" width="429" height="32" as="geometry" />
        </mxCell>
        <mxCell id="RaNbdo8rH24mwtOtZHc8-402" value="+ DeleteEmployee(String, Database)" style="text;strokeColor=none;fillColor=none;align=left;verticalAlign=top;spacingLeft=4;spacingRight=4;overflow=hidden;rotatable=0;points=[[0,0.5],[1,0.5]];portConstraint=eastwest;" vertex="1" parent="RaNbdo8rH24mwtOtZHc8-395">
          <mxGeometry y="199.73333333333335" width="429" height="32" as="geometry" />
        </mxCell>
        <mxCell id="RaNbdo8rH24mwtOtZHc8-403" value="Passenger" style="swimlane;fontStyle=1;align=center;verticalAlign=top;childLayout=stackLayout;horizontal=1;startSize=30.823529411764707;horizontalStack=0;resizeParent=1;resizeParentMax=0;resizeLast=0;collapsible=0;marginBottom=0;" vertex="1" parent="1">
          <mxGeometry x="4411" y="734" width="217" height="255.8235294117647" as="geometry" />
        </mxCell>
        <mxCell id="RaNbdo8rH24mwtOtZHc8-404" style="line;strokeWidth=1;fillColor=none;align=left;verticalAlign=middle;spacingTop=-1;spacingLeft=3;spacingRight=3;rotatable=0;labelPosition=right;points=[];portConstraint=eastwest;strokeColor=inherit;" vertex="1" parent="RaNbdo8rH24mwtOtZHc8-403">
          <mxGeometry y="30.823529411764707" width="217" height="8" as="geometry" />
        </mxCell>
        <mxCell id="RaNbdo8rH24mwtOtZHc8-405" value="+ setID(int)" style="text;strokeColor=none;fillColor=none;align=left;verticalAlign=top;spacingLeft=4;spacingRight=4;overflow=hidden;rotatable=0;points=[[0,0.5],[1,0.5]];portConstraint=eastwest;" vertex="1" parent="RaNbdo8rH24mwtOtZHc8-403">
          <mxGeometry y="38.82352941176471" width="217" height="31" as="geometry" />
        </mxCell>
        <mxCell id="RaNbdo8rH24mwtOtZHc8-406" value="+ setName(String)" style="text;strokeColor=none;fillColor=none;align=left;verticalAlign=top;spacingLeft=4;spacingRight=4;overflow=hidden;rotatable=0;points=[[0,0.5],[1,0.5]];portConstraint=eastwest;" vertex="1" parent="RaNbdo8rH24mwtOtZHc8-403">
          <mxGeometry y="69.82352941176471" width="217" height="31" as="geometry" />
        </mxCell>
        <mxCell id="RaNbdo8rH24mwtOtZHc8-407" value="+ setTel(String)" style="text;strokeColor=none;fillColor=none;align=left;verticalAlign=top;spacingLeft=4;spacingRight=4;overflow=hidden;rotatable=0;points=[[0,0.5],[1,0.5]];portConstraint=eastwest;" vertex="1" parent="RaNbdo8rH24mwtOtZHc8-403">
          <mxGeometry y="100.82352941176471" width="217" height="31" as="geometry" />
        </mxCell>
        <mxCell id="RaNbdo8rH24mwtOtZHc8-408" value="+ setEmail(String)" style="text;strokeColor=none;fillColor=none;align=left;verticalAlign=top;spacingLeft=4;spacingRight=4;overflow=hidden;rotatable=0;points=[[0,0.5],[1,0.5]];portConstraint=eastwest;" vertex="1" parent="RaNbdo8rH24mwtOtZHc8-403">
          <mxGeometry y="131.8235294117647" width="217" height="31" as="geometry" />
        </mxCell>
        <mxCell id="RaNbdo8rH24mwtOtZHc8-409" value="+ getName() : : String" style="text;strokeColor=none;fillColor=none;align=left;verticalAlign=top;spacingLeft=4;spacingRight=4;overflow=hidden;rotatable=0;points=[[0,0.5],[1,0.5]];portConstraint=eastwest;" vertex="1" parent="RaNbdo8rH24mwtOtZHc8-403">
          <mxGeometry y="162.8235294117647" width="217" height="31" as="geometry" />
        </mxCell>
        <mxCell id="RaNbdo8rH24mwtOtZHc8-410" value="+ getEmail() : : String" style="text;strokeColor=none;fillColor=none;align=left;verticalAlign=top;spacingLeft=4;spacingRight=4;overflow=hidden;rotatable=0;points=[[0,0.5],[1,0.5]];portConstraint=eastwest;" vertex="1" parent="RaNbdo8rH24mwtOtZHc8-403">
          <mxGeometry y="193.8235294117647" width="217" height="31" as="geometry" />
        </mxCell>
        <mxCell id="RaNbdo8rH24mwtOtZHc8-411" value="+ getTel() : : String" style="text;strokeColor=none;fillColor=none;align=left;verticalAlign=top;spacingLeft=4;spacingRight=4;overflow=hidden;rotatable=0;points=[[0,0.5],[1,0.5]];portConstraint=eastwest;" vertex="1" parent="RaNbdo8rH24mwtOtZHc8-403">
          <mxGeometry y="224.8235294117647" width="217" height="31" as="geometry" />
        </mxCell>
        <mxCell id="RaNbdo8rH24mwtOtZHc8-412" value="PassengersDatabase" style="swimlane;fontStyle=1;align=center;verticalAlign=top;childLayout=stackLayout;horizontal=1;startSize=31.733333333333334;horizontalStack=0;resizeParent=1;resizeParentMax=0;resizeLast=0;collapsible=0;marginBottom=0;" vertex="1" parent="1">
          <mxGeometry x="4755" y="746" width="430" height="231.73333333333335" as="geometry" />
        </mxCell>
        <mxCell id="RaNbdo8rH24mwtOtZHc8-413" style="line;strokeWidth=1;fillColor=none;align=left;verticalAlign=middle;spacingTop=-1;spacingLeft=3;spacingRight=3;rotatable=0;labelPosition=right;points=[];portConstraint=eastwest;strokeColor=inherit;" vertex="1" parent="RaNbdo8rH24mwtOtZHc8-412">
          <mxGeometry y="31.733333333333334" width="430" height="8" as="geometry" />
        </mxCell>
        <mxCell id="RaNbdo8rH24mwtOtZHc8-414" value="+ getNextID(Database) : : int" style="text;strokeColor=none;fillColor=none;align=left;verticalAlign=top;spacingLeft=4;spacingRight=4;overflow=hidden;rotatable=0;points=[[0,0.5],[1,0.5]];portConstraint=eastwest;" vertex="1" parent="RaNbdo8rH24mwtOtZHc8-412">
          <mxGeometry y="39.733333333333334" width="430" height="32" as="geometry" />
        </mxCell>
        <mxCell id="RaNbdo8rH24mwtOtZHc8-415" value="+ getIDs(Database) : : String[]" style="text;strokeColor=none;fillColor=none;align=left;verticalAlign=top;spacingLeft=4;spacingRight=4;overflow=hidden;rotatable=0;points=[[0,0.5],[1,0.5]];portConstraint=eastwest;" vertex="1" parent="RaNbdo8rH24mwtOtZHc8-412">
          <mxGeometry y="71.73333333333333" width="430" height="32" as="geometry" />
        </mxCell>
        <mxCell id="RaNbdo8rH24mwtOtZHc8-416" value="+ AddPassenger(Passenger, Database)" style="text;strokeColor=none;fillColor=none;align=left;verticalAlign=top;spacingLeft=4;spacingRight=4;overflow=hidden;rotatable=0;points=[[0,0.5],[1,0.5]];portConstraint=eastwest;" vertex="1" parent="RaNbdo8rH24mwtOtZHc8-412">
          <mxGeometry y="103.73333333333333" width="430" height="32" as="geometry" />
        </mxCell>
        <mxCell id="RaNbdo8rH24mwtOtZHc8-417" value="+ EditPassenger(Passenger, Database)" style="text;strokeColor=none;fillColor=none;align=left;verticalAlign=top;spacingLeft=4;spacingRight=4;overflow=hidden;rotatable=0;points=[[0,0.5],[1,0.5]];portConstraint=eastwest;" vertex="1" parent="RaNbdo8rH24mwtOtZHc8-412">
          <mxGeometry y="135.73333333333335" width="430" height="32" as="geometry" />
        </mxCell>
        <mxCell id="RaNbdo8rH24mwtOtZHc8-418" value="+ DeletePassenger(String, Database)" style="text;strokeColor=none;fillColor=none;align=left;verticalAlign=top;spacingLeft=4;spacingRight=4;overflow=hidden;rotatable=0;points=[[0,0.5],[1,0.5]];portConstraint=eastwest;" vertex="1" parent="RaNbdo8rH24mwtOtZHc8-412">
          <mxGeometry y="167.73333333333335" width="430" height="32" as="geometry" />
        </mxCell>
        <mxCell id="RaNbdo8rH24mwtOtZHc8-419" value="+ getPassenger(String, Database) : : Passenger" style="text;strokeColor=none;fillColor=none;align=left;verticalAlign=top;spacingLeft=4;spacingRight=4;overflow=hidden;rotatable=0;points=[[0,0.5],[1,0.5]];portConstraint=eastwest;" vertex="1" parent="RaNbdo8rH24mwtOtZHc8-412">
          <mxGeometry y="199.73333333333335" width="430" height="32" as="geometry" />
        </mxCell>
        <mxCell id="RaNbdo8rH24mwtOtZHc8-420" value="Train" style="swimlane;fontStyle=1;align=center;verticalAlign=top;childLayout=stackLayout;horizontal=1;startSize=32.92307692307692;horizontalStack=0;resizeParent=1;resizeParentMax=0;resizeLast=0;collapsible=0;marginBottom=0;" vertex="1" parent="1">
          <mxGeometry x="1220" y="758" width="239" height="205.9230769230769" as="geometry" />
        </mxCell>
        <mxCell id="RaNbdo8rH24mwtOtZHc8-421" style="line;strokeWidth=1;fillColor=none;align=left;verticalAlign=middle;spacingTop=-1;spacingLeft=3;spacingRight=3;rotatable=0;labelPosition=right;points=[];portConstraint=eastwest;strokeColor=inherit;" vertex="1" parent="RaNbdo8rH24mwtOtZHc8-420">
          <mxGeometry y="32.92307692307692" width="239" height="8" as="geometry" />
        </mxCell>
        <mxCell id="RaNbdo8rH24mwtOtZHc8-422" value="+ setID(int)" style="text;strokeColor=none;fillColor=none;align=left;verticalAlign=top;spacingLeft=4;spacingRight=4;overflow=hidden;rotatable=0;points=[[0,0.5],[1,0.5]];portConstraint=eastwest;" vertex="1" parent="RaNbdo8rH24mwtOtZHc8-420">
          <mxGeometry y="40.92307692307692" width="239" height="33" as="geometry" />
        </mxCell>
        <mxCell id="RaNbdo8rH24mwtOtZHc8-423" value="+ setCapacity(int)" style="text;strokeColor=none;fillColor=none;align=left;verticalAlign=top;spacingLeft=4;spacingRight=4;overflow=hidden;rotatable=0;points=[[0,0.5],[1,0.5]];portConstraint=eastwest;" vertex="1" parent="RaNbdo8rH24mwtOtZHc8-420">
          <mxGeometry y="73.92307692307692" width="239" height="33" as="geometry" />
        </mxCell>
        <mxCell id="RaNbdo8rH24mwtOtZHc8-424" value="+ setDescription(String)" style="text;strokeColor=none;fillColor=none;align=left;verticalAlign=top;spacingLeft=4;spacingRight=4;overflow=hidden;rotatable=0;points=[[0,0.5],[1,0.5]];portConstraint=eastwest;" vertex="1" parent="RaNbdo8rH24mwtOtZHc8-420">
          <mxGeometry y="106.92307692307692" width="239" height="33" as="geometry" />
        </mxCell>
        <mxCell id="RaNbdo8rH24mwtOtZHc8-425" value="+ getDescription() : : String" style="text;strokeColor=none;fillColor=none;align=left;verticalAlign=top;spacingLeft=4;spacingRight=4;overflow=hidden;rotatable=0;points=[[0,0.5],[1,0.5]];portConstraint=eastwest;" vertex="1" parent="RaNbdo8rH24mwtOtZHc8-420">
          <mxGeometry y="139.9230769230769" width="239" height="33" as="geometry" />
        </mxCell>
        <mxCell id="RaNbdo8rH24mwtOtZHc8-426" value="+ getCapacity() : : int" style="text;strokeColor=none;fillColor=none;align=left;verticalAlign=top;spacingLeft=4;spacingRight=4;overflow=hidden;rotatable=0;points=[[0,0.5],[1,0.5]];portConstraint=eastwest;" vertex="1" parent="RaNbdo8rH24mwtOtZHc8-420">
          <mxGeometry y="172.9230769230769" width="239" height="33" as="geometry" />
        </mxCell>
        <mxCell id="RaNbdo8rH24mwtOtZHc8-427" value="TrainsDatabase" style="swimlane;fontStyle=1;align=center;verticalAlign=top;childLayout=stackLayout;horizontal=1;startSize=31.733333333333334;horizontalStack=0;resizeParent=1;resizeParentMax=0;resizeLast=0;collapsible=0;marginBottom=0;" vertex="1" parent="1">
          <mxGeometry x="800" y="746" width="343" height="231.73333333333335" as="geometry" />
        </mxCell>
        <mxCell id="RaNbdo8rH24mwtOtZHc8-428" style="line;strokeWidth=1;fillColor=none;align=left;verticalAlign=middle;spacingTop=-1;spacingLeft=3;spacingRight=3;rotatable=0;labelPosition=right;points=[];portConstraint=eastwest;strokeColor=inherit;" vertex="1" parent="RaNbdo8rH24mwtOtZHc8-427">
          <mxGeometry y="31.733333333333334" width="343" height="8" as="geometry" />
        </mxCell>
        <mxCell id="RaNbdo8rH24mwtOtZHc8-429" value="+ getNextID(Database) : : int" style="text;strokeColor=none;fillColor=none;align=left;verticalAlign=top;spacingLeft=4;spacingRight=4;overflow=hidden;rotatable=0;points=[[0,0.5],[1,0.5]];portConstraint=eastwest;" vertex="1" parent="RaNbdo8rH24mwtOtZHc8-427">
          <mxGeometry y="39.733333333333334" width="343" height="32" as="geometry" />
        </mxCell>
        <mxCell id="RaNbdo8rH24mwtOtZHc8-430" value="+ getTrainsIDs(Database) : : String[]" style="text;strokeColor=none;fillColor=none;align=left;verticalAlign=top;spacingLeft=4;spacingRight=4;overflow=hidden;rotatable=0;points=[[0,0.5],[1,0.5]];portConstraint=eastwest;" vertex="1" parent="RaNbdo8rH24mwtOtZHc8-427">
          <mxGeometry y="71.73333333333333" width="343" height="32" as="geometry" />
        </mxCell>
        <mxCell id="RaNbdo8rH24mwtOtZHc8-431" value="+ getTrain(String, Database) : : Train" style="text;strokeColor=none;fillColor=none;align=left;verticalAlign=top;spacingLeft=4;spacingRight=4;overflow=hidden;rotatable=0;points=[[0,0.5],[1,0.5]];portConstraint=eastwest;" vertex="1" parent="RaNbdo8rH24mwtOtZHc8-427">
          <mxGeometry y="103.73333333333333" width="343" height="32" as="geometry" />
        </mxCell>
        <mxCell id="RaNbdo8rH24mwtOtZHc8-432" value="+ AddTrain(Train, Database)" style="text;strokeColor=none;fillColor=none;align=left;verticalAlign=top;spacingLeft=4;spacingRight=4;overflow=hidden;rotatable=0;points=[[0,0.5],[1,0.5]];portConstraint=eastwest;" vertex="1" parent="RaNbdo8rH24mwtOtZHc8-427">
          <mxGeometry y="135.73333333333335" width="343" height="32" as="geometry" />
        </mxCell>
        <mxCell id="RaNbdo8rH24mwtOtZHc8-433" value="+ EditTrain(Train, Database)" style="text;strokeColor=none;fillColor=none;align=left;verticalAlign=top;spacingLeft=4;spacingRight=4;overflow=hidden;rotatable=0;points=[[0,0.5],[1,0.5]];portConstraint=eastwest;" vertex="1" parent="RaNbdo8rH24mwtOtZHc8-427">
          <mxGeometry y="167.73333333333335" width="343" height="32" as="geometry" />
        </mxCell>
        <mxCell id="RaNbdo8rH24mwtOtZHc8-434" value="+ DeleteTrain(String, Database)" style="text;strokeColor=none;fillColor=none;align=left;verticalAlign=top;spacingLeft=4;spacingRight=4;overflow=hidden;rotatable=0;points=[[0,0.5],[1,0.5]];portConstraint=eastwest;" vertex="1" parent="RaNbdo8rH24mwtOtZHc8-427">
          <mxGeometry y="199.73333333333335" width="343" height="32" as="geometry" />
        </mxCell>
        <mxCell id="RaNbdo8rH24mwtOtZHc8-435" value="Trip" style="swimlane;fontStyle=1;align=center;verticalAlign=top;childLayout=stackLayout;horizontal=1;startSize=30.105263157894736;horizontalStack=0;resizeParent=1;resizeParentMax=0;resizeLast=0;collapsible=0;marginBottom=0;" vertex="1" parent="1">
          <mxGeometry x="5940" y="722" width="262" height="278.10526315789474" as="geometry" />
        </mxCell>
        <mxCell id="RaNbdo8rH24mwtOtZHc8-436" style="line;strokeWidth=1;fillColor=none;align=left;verticalAlign=middle;spacingTop=-1;spacingLeft=3;spacingRight=3;rotatable=0;labelPosition=right;points=[];portConstraint=eastwest;strokeColor=inherit;" vertex="1" parent="RaNbdo8rH24mwtOtZHc8-435">
          <mxGeometry y="30.105263157894736" width="262" height="8" as="geometry" />
        </mxCell>
        <mxCell id="RaNbdo8rH24mwtOtZHc8-437" value="+ getTrain() : : Train" style="text;strokeColor=none;fillColor=none;align=left;verticalAlign=top;spacingLeft=4;spacingRight=4;overflow=hidden;rotatable=0;points=[[0,0.5],[1,0.5]];portConstraint=eastwest;" vertex="1" parent="RaNbdo8rH24mwtOtZHc8-435">
          <mxGeometry y="38.10526315789474" width="262" height="30" as="geometry" />
        </mxCell>
        <mxCell id="RaNbdo8rH24mwtOtZHc8-438" value="+ getStart() : : String" style="text;strokeColor=none;fillColor=none;align=left;verticalAlign=top;spacingLeft=4;spacingRight=4;overflow=hidden;rotatable=0;points=[[0,0.5],[1,0.5]];portConstraint=eastwest;" vertex="1" parent="RaNbdo8rH24mwtOtZHc8-435">
          <mxGeometry y="68.10526315789474" width="262" height="30" as="geometry" />
        </mxCell>
        <mxCell id="RaNbdo8rH24mwtOtZHc8-439" value="+ getDestination() : : String" style="text;strokeColor=none;fillColor=none;align=left;verticalAlign=top;spacingLeft=4;spacingRight=4;overflow=hidden;rotatable=0;points=[[0,0.5],[1,0.5]];portConstraint=eastwest;" vertex="1" parent="RaNbdo8rH24mwtOtZHc8-435">
          <mxGeometry y="98.10526315789474" width="262" height="30" as="geometry" />
        </mxCell>
        <mxCell id="RaNbdo8rH24mwtOtZHc8-440" value="+ getDate() : : String" style="text;strokeColor=none;fillColor=none;align=left;verticalAlign=top;spacingLeft=4;spacingRight=4;overflow=hidden;rotatable=0;points=[[0,0.5],[1,0.5]];portConstraint=eastwest;" vertex="1" parent="RaNbdo8rH24mwtOtZHc8-435">
          <mxGeometry y="128.10526315789474" width="262" height="30" as="geometry" />
        </mxCell>
        <mxCell id="RaNbdo8rH24mwtOtZHc8-441" value="+ getDepartureTime() : : String" style="text;strokeColor=none;fillColor=none;align=left;verticalAlign=top;spacingLeft=4;spacingRight=4;overflow=hidden;rotatable=0;points=[[0,0.5],[1,0.5]];portConstraint=eastwest;" vertex="1" parent="RaNbdo8rH24mwtOtZHc8-435">
          <mxGeometry y="158.10526315789474" width="262" height="30" as="geometry" />
        </mxCell>
        <mxCell id="RaNbdo8rH24mwtOtZHc8-442" value="+ getArrivalTime() : : String" style="text;strokeColor=none;fillColor=none;align=left;verticalAlign=top;spacingLeft=4;spacingRight=4;overflow=hidden;rotatable=0;points=[[0,0.5],[1,0.5]];portConstraint=eastwest;" vertex="1" parent="RaNbdo8rH24mwtOtZHc8-435">
          <mxGeometry y="188.10526315789474" width="262" height="30" as="geometry" />
        </mxCell>
        <mxCell id="RaNbdo8rH24mwtOtZHc8-443" value="+ getPrice() : : double" style="text;strokeColor=none;fillColor=none;align=left;verticalAlign=top;spacingLeft=4;spacingRight=4;overflow=hidden;rotatable=0;points=[[0,0.5],[1,0.5]];portConstraint=eastwest;" vertex="1" parent="RaNbdo8rH24mwtOtZHc8-435">
          <mxGeometry y="218.10526315789474" width="262" height="30" as="geometry" />
        </mxCell>
        <mxCell id="RaNbdo8rH24mwtOtZHc8-444" value="+ getBookedSeats() : : int" style="text;strokeColor=none;fillColor=none;align=left;verticalAlign=top;spacingLeft=4;spacingRight=4;overflow=hidden;rotatable=0;points=[[0,0.5],[1,0.5]];portConstraint=eastwest;" vertex="1" parent="RaNbdo8rH24mwtOtZHc8-435">
          <mxGeometry y="248.10526315789474" width="262" height="30" as="geometry" />
        </mxCell>
        <mxCell id="RaNbdo8rH24mwtOtZHc8-445" value="Database" style="swimlane;fontStyle=1;align=center;verticalAlign=top;childLayout=stackLayout;horizontal=1;startSize=38;horizontalStack=0;resizeParent=1;resizeParentMax=0;resizeLast=0;collapsible=0;marginBottom=0;" vertex="1" parent="1">
          <mxGeometry x="3554" y="827" width="92" height="57" as="geometry" />
        </mxCell>
        <mxCell id="RaNbdo8rH24mwtOtZHc8-446" style="line;strokeWidth=1;fillColor=none;align=left;verticalAlign=middle;spacingTop=-1;spacingLeft=3;spacingRight=3;rotatable=0;labelPosition=right;points=[];portConstraint=eastwest;strokeColor=inherit;" vertex="1" parent="RaNbdo8rH24mwtOtZHc8-445">
          <mxGeometry y="38" width="92" height="19" as="geometry" />
        </mxCell>
        <mxCell id="RaNbdo8rH24mwtOtZHc8-447" value="BookTrip" style="swimlane;fontStyle=1;align=center;verticalAlign=top;childLayout=stackLayout;horizontal=1;startSize=47.2;horizontalStack=0;resizeParent=1;resizeParentMax=0;resizeLast=0;collapsible=0;marginBottom=0;" vertex="1" parent="1">
          <mxGeometry x="5483" y="498" width="457" height="102.2" as="geometry" />
        </mxCell>
        <mxCell id="RaNbdo8rH24mwtOtZHc8-448" style="line;strokeWidth=1;fillColor=none;align=left;verticalAlign=middle;spacingTop=-1;spacingLeft=3;spacingRight=3;rotatable=0;labelPosition=right;points=[];portConstraint=eastwest;strokeColor=inherit;" vertex="1" parent="RaNbdo8rH24mwtOtZHc8-447">
          <mxGeometry y="47.2" width="457" height="8" as="geometry" />
        </mxCell>
        <mxCell id="RaNbdo8rH24mwtOtZHc8-449" value="+ BookTrip(JFrame frame, Database database, Trip trip)" style="text;strokeColor=none;fillColor=none;align=left;verticalAlign=top;spacingLeft=4;spacingRight=4;overflow=hidden;rotatable=0;points=[[0,0.5],[1,0.5]];portConstraint=eastwest;" vertex="1" parent="RaNbdo8rH24mwtOtZHc8-447">
          <mxGeometry y="55.2" width="457" height="47" as="geometry" />
        </mxCell>
        <mxCell id="RaNbdo8rH24mwtOtZHc8-450" value="TripsDatabase" style="swimlane;fontStyle=1;align=center;verticalAlign=top;childLayout=stackLayout;horizontal=1;startSize=40.57142857142857;horizontalStack=0;resizeParent=1;resizeParentMax=0;resizeLast=0;collapsible=0;marginBottom=0;" vertex="1" parent="1">
          <mxGeometry x="5503" y="794" width="387" height="130.57142857142856" as="geometry" />
        </mxCell>
        <mxCell id="RaNbdo8rH24mwtOtZHc8-451" style="line;strokeWidth=1;fillColor=none;align=left;verticalAlign=middle;spacingTop=-1;spacingLeft=3;spacingRight=3;rotatable=0;labelPosition=right;points=[];portConstraint=eastwest;strokeColor=inherit;" vertex="1" parent="RaNbdo8rH24mwtOtZHc8-450">
          <mxGeometry y="40.57142857142857" width="387" height="8" as="geometry" />
        </mxCell>
        <mxCell id="RaNbdo8rH24mwtOtZHc8-452" value="+ getAllTrips(Database db) : ArrayList&lt;Trip&gt;" style="text;strokeColor=none;fillColor=none;align=left;verticalAlign=top;spacingLeft=4;spacingRight=4;overflow=hidden;rotatable=0;points=[[0,0.5],[1,0.5]];portConstraint=eastwest;" vertex="1" parent="RaNbdo8rH24mwtOtZHc8-450">
          <mxGeometry y="48.57142857142857" width="387" height="41" as="geometry" />
        </mxCell>
        <mxCell id="RaNbdo8rH24mwtOtZHc8-453" value="+ BookTrip(Trip, String, String, Database)" style="text;strokeColor=none;fillColor=none;align=left;verticalAlign=top;spacingLeft=4;spacingRight=4;overflow=hidden;rotatable=0;points=[[0,0.5],[1,0.5]];portConstraint=eastwest;" vertex="1" parent="RaNbdo8rH24mwtOtZHc8-450">
          <mxGeometry y="89.57142857142857" width="387" height="41" as="geometry" />
        </mxCell>
        <mxCell id="RaNbdo8rH24mwtOtZHc8-454" value="" style="curved=1;startArrow=none;endArrow=open;endSize=12;exitX=0;exitY=0.52;entryX=0;entryY=0.37;rounded=0;" edge="1" parent="1" source="RaNbdo8rH24mwtOtZHc8-335" target="RaNbdo8rH24mwtOtZHc8-372">
          <mxGeometry relative="1" as="geometry">
            <Array as="points">
              <mxPoint x="800" y="285" />
              <mxPoint x="800" y="661" />
            </Array>
          </mxGeometry>
        </mxCell>
        <mxCell id="RaNbdo8rH24mwtOtZHc8-455" value="" style="curved=1;startArrow=none;endArrow=open;endSize=12;exitX=0;exitY=0.55;entryX=0.5;entryY=0;rounded=0;" edge="1" parent="1" source="RaNbdo8rH24mwtOtZHc8-335" target="RaNbdo8rH24mwtOtZHc8-343">
          <mxGeometry relative="1" as="geometry">
            <Array as="points">
              <mxPoint x="2821" y="285" />
            </Array>
          </mxGeometry>
        </mxCell>
        <mxCell id="RaNbdo8rH24mwtOtZHc8-456" value="" style="curved=1;startArrow=none;endArrow=open;endSize=12;exitX=1;exitY=0.59;entryX=0.5;entryY=0;rounded=0;" edge="1" parent="1" source="RaNbdo8rH24mwtOtZHc8-335" target="RaNbdo8rH24mwtOtZHc8-447">
          <mxGeometry relative="1" as="geometry">
            <Array as="points">
              <mxPoint x="5712" y="285" />
            </Array>
          </mxGeometry>
        </mxCell>
        <mxCell id="RaNbdo8rH24mwtOtZHc8-457" value="" style="curved=1;startArrow=none;endArrow=open;endSize=12;exitX=1;exitY=0.57;entryX=0.84;entryY=0;rounded=0;" edge="1" parent="1" source="RaNbdo8rH24mwtOtZHc8-335" target="RaNbdo8rH24mwtOtZHc8-450">
          <mxGeometry relative="1" as="geometry">
            <Array as="points">
              <mxPoint x="6061" y="285" />
              <mxPoint x="6061" y="661" />
            </Array>
          </mxGeometry>
        </mxCell>
        <mxCell id="RaNbdo8rH24mwtOtZHc8-458" value="" style="curved=1;startArrow=none;endArrow=open;endSize=12;exitX=1;exitY=0.57;entryX=0.99;entryY=0.45;rounded=0;" edge="1" parent="1" source="RaNbdo8rH24mwtOtZHc8-335" target="RaNbdo8rH24mwtOtZHc8-445">
          <mxGeometry relative="1" as="geometry">
            <Array as="points">
              <mxPoint x="6081" y="285" />
              <mxPoint x="6081" y="661" />
            </Array>
          </mxGeometry>
        </mxCell>
        <mxCell id="RaNbdo8rH24mwtOtZHc8-459" value="" style="curved=1;startArrow=none;endArrow=open;endSize=12;exitX=1;exitY=0.56;entryX=0.58;entryY=0;rounded=0;" edge="1" parent="1" source="RaNbdo8rH24mwtOtZHc8-335" target="RaNbdo8rH24mwtOtZHc8-435">
          <mxGeometry relative="1" as="geometry">
            <Array as="points">
              <mxPoint x="6101" y="285" />
              <mxPoint x="6101" y="661" />
            </Array>
          </mxGeometry>
        </mxCell>
        <mxCell id="RaNbdo8rH24mwtOtZHc8-460" value="" style="curved=1;startArrow=none;endArrow=open;endSize=12;exitX=0;exitY=0.58;entryX=0;entryY=0.35;rounded=0;" edge="1" parent="1" source="RaNbdo8rH24mwtOtZHc8-343" target="RaNbdo8rH24mwtOtZHc8-372">
          <mxGeometry relative="1" as="geometry">
            <Array as="points">
              <mxPoint x="935" y="461" />
              <mxPoint x="935" y="661" />
            </Array>
          </mxGeometry>
        </mxCell>
        <mxCell id="RaNbdo8rH24mwtOtZHc8-461" value="" style="curved=1;startArrow=none;endArrow=open;endSize=12;exitX=0;exitY=0.58;entryX=0;entryY=0.46;rounded=0;" edge="1" parent="1" source="RaNbdo8rH24mwtOtZHc8-343" target="RaNbdo8rH24mwtOtZHc8-445">
          <mxGeometry relative="1" as="geometry">
            <Array as="points">
              <mxPoint x="955" y="461" />
              <mxPoint x="955" y="661" />
            </Array>
          </mxGeometry>
        </mxCell>
        <mxCell id="RaNbdo8rH24mwtOtZHc8-462" value="" style="curved=1;startArrow=none;endArrow=open;endSize=12;exitX=0;exitY=0.59;entryX=0.5;entryY=0;rounded=0;" edge="1" parent="1" source="RaNbdo8rH24mwtOtZHc8-343" target="RaNbdo8rH24mwtOtZHc8-359">
          <mxGeometry relative="1" as="geometry">
            <Array as="points">
              <mxPoint x="1197" y="461" />
            </Array>
          </mxGeometry>
        </mxCell>
        <mxCell id="RaNbdo8rH24mwtOtZHc8-463" value="" style="curved=1;startArrow=none;endArrow=open;endSize=12;exitX=0;exitY=0.63;entryX=0.5;entryY=0;rounded=0;" edge="1" parent="1" source="RaNbdo8rH24mwtOtZHc8-343" target="RaNbdo8rH24mwtOtZHc8-362">
          <mxGeometry relative="1" as="geometry">
            <Array as="points">
              <mxPoint x="1653" y="461" />
            </Array>
          </mxGeometry>
        </mxCell>
        <mxCell id="RaNbdo8rH24mwtOtZHc8-464" value="" style="curved=1;startArrow=none;endArrow=open;endSize=12;exitX=0;exitY=0.72;entryX=0.5;entryY=0;rounded=0;" edge="1" parent="1" source="RaNbdo8rH24mwtOtZHc8-343" target="RaNbdo8rH24mwtOtZHc8-346">
          <mxGeometry relative="1" as="geometry">
            <Array as="points">
              <mxPoint x="2124" y="461" />
            </Array>
          </mxGeometry>
        </mxCell>
        <mxCell id="RaNbdo8rH24mwtOtZHc8-465" value="" style="curved=1;startArrow=none;endArrow=open;endSize=12;exitX=0.86;exitY=1;entryX=0.5;entryY=0;rounded=0;" edge="1" parent="1" source="RaNbdo8rH24mwtOtZHc8-343" target="RaNbdo8rH24mwtOtZHc8-349">
          <mxGeometry relative="1" as="geometry">
            <Array as="points">
              <mxPoint x="3035" y="461" />
            </Array>
          </mxGeometry>
        </mxCell>
        <mxCell id="RaNbdo8rH24mwtOtZHc8-466" value="" style="curved=1;startArrow=none;endArrow=open;endSize=12;exitX=1;exitY=0.67;entryX=0.5;entryY=0;rounded=0;" edge="1" parent="1" source="RaNbdo8rH24mwtOtZHc8-343" target="RaNbdo8rH24mwtOtZHc8-352">
          <mxGeometry relative="1" as="geometry">
            <Array as="points">
              <mxPoint x="3722" y="461" />
            </Array>
          </mxGeometry>
        </mxCell>
        <mxCell id="RaNbdo8rH24mwtOtZHc8-467" value="" style="curved=1;startArrow=none;endArrow=open;endSize=12;exitX=1;exitY=0.6;entryX=0.5;entryY=0;rounded=0;" edge="1" parent="1" source="RaNbdo8rH24mwtOtZHc8-343" target="RaNbdo8rH24mwtOtZHc8-355">
          <mxGeometry relative="1" as="geometry">
            <Array as="points">
              <mxPoint x="4321" y="461" />
            </Array>
          </mxGeometry>
        </mxCell>
        <mxCell id="RaNbdo8rH24mwtOtZHc8-468" value="" style="curved=1;startArrow=none;endArrow=open;endSize=12;exitX=1;exitY=0.57;entryX=0.5;entryY=0;rounded=0;" edge="1" parent="1" source="RaNbdo8rH24mwtOtZHc8-343" target="RaNbdo8rH24mwtOtZHc8-365">
          <mxGeometry relative="1" as="geometry">
            <Array as="points">
              <mxPoint x="4887" y="461" />
            </Array>
          </mxGeometry>
        </mxCell>
        <mxCell id="RaNbdo8rH24mwtOtZHc8-469" value="" style="curved=1;startArrow=none;endArrow=open;endSize=12;exitX=1;exitY=0.56;entryX=0.5;entryY=0;rounded=0;" edge="1" parent="1" source="RaNbdo8rH24mwtOtZHc8-343" target="RaNbdo8rH24mwtOtZHc8-368">
          <mxGeometry relative="1" as="geometry">
            <Array as="points">
              <mxPoint x="5169" y="461" />
            </Array>
          </mxGeometry>
        </mxCell>
        <mxCell id="RaNbdo8rH24mwtOtZHc8-470" value="" style="curved=1;startArrow=none;endArrow=open;endSize=12;exitX=1;exitY=0.56;entryX=0.5;entryY=0;rounded=0;" edge="1" parent="1" source="RaNbdo8rH24mwtOtZHc8-343" target="RaNbdo8rH24mwtOtZHc8-370">
          <mxGeometry relative="1" as="geometry">
            <Array as="points">
              <mxPoint x="5347" y="461" />
            </Array>
          </mxGeometry>
        </mxCell>
        <mxCell id="RaNbdo8rH24mwtOtZHc8-471" value="" style="curved=1;startArrow=none;endArrow=open;endSize=12;exitX=0.18;exitY=1;entryX=0.17;entryY=0;rounded=0;" edge="1" parent="1" source="RaNbdo8rH24mwtOtZHc8-346" target="RaNbdo8rH24mwtOtZHc8-372">
          <mxGeometry relative="1" as="geometry">
            <Array as="points">
              <mxPoint x="1898" y="661" />
            </Array>
          </mxGeometry>
        </mxCell>
        <mxCell id="RaNbdo8rH24mwtOtZHc8-472" value="" style="curved=1;startArrow=none;endArrow=open;endSize=12;exitX=0.47;exitY=1;entryX=0;entryY=0.3;rounded=0;" edge="1" parent="1" source="RaNbdo8rH24mwtOtZHc8-346" target="RaNbdo8rH24mwtOtZHc8-377">
          <mxGeometry relative="1" as="geometry">
            <Array as="points">
              <mxPoint x="2106" y="661" />
            </Array>
          </mxGeometry>
        </mxCell>
        <mxCell id="RaNbdo8rH24mwtOtZHc8-473" value="" style="curved=1;startArrow=none;endArrow=open;endSize=12;exitX=0.5;exitY=1;entryX=0;entryY=0.07;rounded=0;" edge="1" parent="1" source="RaNbdo8rH24mwtOtZHc8-346" target="RaNbdo8rH24mwtOtZHc8-395">
          <mxGeometry relative="1" as="geometry">
            <Array as="points">
              <mxPoint x="2126" y="661" />
            </Array>
          </mxGeometry>
        </mxCell>
        <mxCell id="RaNbdo8rH24mwtOtZHc8-474" value="" style="curved=1;startArrow=none;endArrow=open;endSize=12;exitX=0.77;exitY=1;entryX=0;entryY=0.41;rounded=0;" edge="1" parent="1" source="RaNbdo8rH24mwtOtZHc8-346" target="RaNbdo8rH24mwtOtZHc8-445">
          <mxGeometry relative="1" as="geometry">
            <Array as="points">
              <mxPoint x="2316" y="661" />
            </Array>
          </mxGeometry>
        </mxCell>
        <mxCell id="RaNbdo8rH24mwtOtZHc8-475" value="" style="curved=1;startArrow=none;endArrow=open;endSize=12;exitX=1;exitY=0.95;entryX=0;entryY=0.34;rounded=0;" edge="1" parent="1" source="RaNbdo8rH24mwtOtZHc8-346" target="RaNbdo8rH24mwtOtZHc8-382">
          <mxGeometry relative="1" as="geometry">
            <Array as="points">
              <mxPoint x="2521" y="661" />
            </Array>
          </mxGeometry>
        </mxCell>
        <mxCell id="RaNbdo8rH24mwtOtZHc8-476" value="" style="curved=1;startArrow=none;endArrow=open;endSize=12;exitX=0;exitY=0.95;entryX=1;entryY=0.14;rounded=0;" edge="1" parent="1" source="RaNbdo8rH24mwtOtZHc8-349" target="RaNbdo8rH24mwtOtZHc8-372">
          <mxGeometry relative="1" as="geometry">
            <Array as="points">
              <mxPoint x="2638" y="661" />
            </Array>
          </mxGeometry>
        </mxCell>
        <mxCell id="RaNbdo8rH24mwtOtZHc8-477" value="" style="curved=1;startArrow=none;endArrow=open;endSize=12;exitX=0.07;exitY=1;entryX=0;entryY=0.07;rounded=0;" edge="1" parent="1" source="RaNbdo8rH24mwtOtZHc8-349" target="RaNbdo8rH24mwtOtZHc8-377">
          <mxGeometry relative="1" as="geometry">
            <Array as="points">
              <mxPoint x="2727" y="661" />
            </Array>
          </mxGeometry>
        </mxCell>
        <mxCell id="RaNbdo8rH24mwtOtZHc8-478" value="" style="curved=1;startArrow=none;endArrow=open;endSize=12;exitX=0.54;exitY=1;entryX=1;entryY=0.15;rounded=0;" edge="1" parent="1" source="RaNbdo8rH24mwtOtZHc8-349" target="RaNbdo8rH24mwtOtZHc8-395">
          <mxGeometry relative="1" as="geometry">
            <Array as="points">
              <mxPoint x="3064" y="661" />
            </Array>
          </mxGeometry>
        </mxCell>
        <mxCell id="RaNbdo8rH24mwtOtZHc8-479" value="" style="curved=1;startArrow=none;endArrow=open;endSize=12;exitX=0.57;exitY=1;entryX=0;entryY=0.28;rounded=0;" edge="1" parent="1" source="RaNbdo8rH24mwtOtZHc8-349" target="RaNbdo8rH24mwtOtZHc8-445">
          <mxGeometry relative="1" as="geometry">
            <Array as="points">
              <mxPoint x="3084" y="661" />
            </Array>
          </mxGeometry>
        </mxCell>
        <mxCell id="RaNbdo8rH24mwtOtZHc8-480" value="" style="curved=1;startArrow=none;endArrow=open;endSize=12;exitX=0.84;exitY=1;entryX=1;entryY=0.31;rounded=0;" edge="1" parent="1" source="RaNbdo8rH24mwtOtZHc8-349" target="RaNbdo8rH24mwtOtZHc8-382">
          <mxGeometry relative="1" as="geometry">
            <Array as="points">
              <mxPoint x="3274" y="661" />
            </Array>
          </mxGeometry>
        </mxCell>
        <mxCell id="RaNbdo8rH24mwtOtZHc8-481" value="" style="curved=1;startArrow=none;endArrow=open;endSize=12;exitX=0;exitY=0.91;entryX=1;entryY=0.35;rounded=0;" edge="1" parent="1" source="RaNbdo8rH24mwtOtZHc8-352" target="RaNbdo8rH24mwtOtZHc8-372">
          <mxGeometry relative="1" as="geometry">
            <Array as="points">
              <mxPoint x="3294" y="661" />
            </Array>
          </mxGeometry>
        </mxCell>
        <mxCell id="RaNbdo8rH24mwtOtZHc8-482" value="" style="curved=1;startArrow=none;endArrow=open;endSize=12;exitX=0.51;exitY=1;entryX=0.94;entryY=0;rounded=0;" edge="1" parent="1" source="RaNbdo8rH24mwtOtZHc8-352" target="RaNbdo8rH24mwtOtZHc8-377">
          <mxGeometry relative="1" as="geometry">
            <Array as="points">
              <mxPoint x="3729" y="661" />
            </Array>
          </mxGeometry>
        </mxCell>
        <mxCell id="RaNbdo8rH24mwtOtZHc8-483" value="" style="curved=1;startArrow=none;endArrow=open;endSize=12;exitX=0.54;exitY=1;entryX=0;entryY=0.35;rounded=0;" edge="1" parent="1" source="RaNbdo8rH24mwtOtZHc8-352" target="RaNbdo8rH24mwtOtZHc8-412">
          <mxGeometry relative="1" as="geometry">
            <Array as="points">
              <mxPoint x="3749" y="661" />
            </Array>
          </mxGeometry>
        </mxCell>
        <mxCell id="RaNbdo8rH24mwtOtZHc8-484" value="" style="curved=1;startArrow=none;endArrow=open;endSize=12;exitX=0.75;exitY=1;entryX=0.99;entryY=0.12;rounded=0;" edge="1" parent="1" source="RaNbdo8rH24mwtOtZHc8-352" target="RaNbdo8rH24mwtOtZHc8-445">
          <mxGeometry relative="1" as="geometry">
            <Array as="points">
              <mxPoint x="3899" y="661" />
            </Array>
          </mxGeometry>
        </mxCell>
        <mxCell id="RaNbdo8rH24mwtOtZHc8-485" value="" style="curved=1;startArrow=none;endArrow=open;endSize=12;exitX=0.91;exitY=1;entryX=0;entryY=0.34;rounded=0;" edge="1" parent="1" source="RaNbdo8rH24mwtOtZHc8-352" target="RaNbdo8rH24mwtOtZHc8-403">
          <mxGeometry relative="1" as="geometry">
            <Array as="points">
              <mxPoint x="4011" y="661" />
            </Array>
          </mxGeometry>
        </mxCell>
        <mxCell id="RaNbdo8rH24mwtOtZHc8-486" value="" style="curved=1;startArrow=none;endArrow=open;endSize=12;exitX=0.17;exitY=1;entryX=1;entryY=0.41;rounded=0;" edge="1" parent="1" source="RaNbdo8rH24mwtOtZHc8-355" target="RaNbdo8rH24mwtOtZHc8-372">
          <mxGeometry relative="1" as="geometry">
            <Array as="points">
              <mxPoint x="4031" y="661" />
            </Array>
          </mxGeometry>
        </mxCell>
        <mxCell id="RaNbdo8rH24mwtOtZHc8-487" value="" style="curved=1;startArrow=none;endArrow=open;endSize=12;exitX=0.46;exitY=1;entryX=1;entryY=0.25;rounded=0;" edge="1" parent="1" source="RaNbdo8rH24mwtOtZHc8-355" target="RaNbdo8rH24mwtOtZHc8-377">
          <mxGeometry relative="1" as="geometry">
            <Array as="points">
              <mxPoint x="4284" y="661" />
            </Array>
          </mxGeometry>
        </mxCell>
        <mxCell id="RaNbdo8rH24mwtOtZHc8-488" value="" style="curved=1;startArrow=none;endArrow=open;endSize=12;exitX=0.66;exitY=1;entryX=0;entryY=0.14;rounded=0;" edge="1" parent="1" source="RaNbdo8rH24mwtOtZHc8-355" target="RaNbdo8rH24mwtOtZHc8-412">
          <mxGeometry relative="1" as="geometry">
            <Array as="points">
              <mxPoint x="4461" y="661" />
            </Array>
          </mxGeometry>
        </mxCell>
        <mxCell id="RaNbdo8rH24mwtOtZHc8-489" value="" style="curved=1;startArrow=none;endArrow=open;endSize=12;exitX=0.69;exitY=1;entryX=0.99;entryY=0.37;rounded=0;" edge="1" parent="1" source="RaNbdo8rH24mwtOtZHc8-355" target="RaNbdo8rH24mwtOtZHc8-445">
          <mxGeometry relative="1" as="geometry">
            <Array as="points">
              <mxPoint x="4481" y="661" />
            </Array>
          </mxGeometry>
        </mxCell>
        <mxCell id="RaNbdo8rH24mwtOtZHc8-490" value="" style="curved=1;startArrow=none;endArrow=open;endSize=12;exitX=0.81;exitY=1;entryX=0.72;entryY=0;rounded=0;" edge="1" parent="1" source="RaNbdo8rH24mwtOtZHc8-355" target="RaNbdo8rH24mwtOtZHc8-403">
          <mxGeometry relative="1" as="geometry">
            <Array as="points">
              <mxPoint x="4594" y="661" />
            </Array>
          </mxGeometry>
        </mxCell>
        <mxCell id="RaNbdo8rH24mwtOtZHc8-491" value="" style="curved=1;startArrow=none;endArrow=open;endSize=12;exitX=0.33;exitY=1;entryX=0;entryY=0.33;rounded=0;" edge="1" parent="1" source="RaNbdo8rH24mwtOtZHc8-359" target="RaNbdo8rH24mwtOtZHc8-372">
          <mxGeometry relative="1" as="geometry">
            <Array as="points">
              <mxPoint x="1086" y="661" />
            </Array>
          </mxGeometry>
        </mxCell>
        <mxCell id="RaNbdo8rH24mwtOtZHc8-492" value="" style="curved=1;startArrow=none;endArrow=open;endSize=12;exitX=0.4;exitY=1;entryX=0;entryY=0.39;rounded=0;" edge="1" parent="1" source="RaNbdo8rH24mwtOtZHc8-359" target="RaNbdo8rH24mwtOtZHc8-377">
          <mxGeometry relative="1" as="geometry">
            <Array as="points">
              <mxPoint x="1134" y="661" />
            </Array>
          </mxGeometry>
        </mxCell>
        <mxCell id="RaNbdo8rH24mwtOtZHc8-493" value="" style="curved=1;startArrow=none;endArrow=open;endSize=12;exitX=0.43;exitY=1;entryX=0.81;entryY=0;rounded=0;" edge="1" parent="1" source="RaNbdo8rH24mwtOtZHc8-359" target="RaNbdo8rH24mwtOtZHc8-427">
          <mxGeometry relative="1" as="geometry">
            <Array as="points">
              <mxPoint x="1154" y="661" />
            </Array>
          </mxGeometry>
        </mxCell>
        <mxCell id="RaNbdo8rH24mwtOtZHc8-494" value="" style="curved=1;startArrow=none;endArrow=open;endSize=12;exitX=0.69;exitY=1;entryX=0;entryY=0.45;rounded=0;" edge="1" parent="1" source="RaNbdo8rH24mwtOtZHc8-359" target="RaNbdo8rH24mwtOtZHc8-445">
          <mxGeometry relative="1" as="geometry">
            <Array as="points">
              <mxPoint x="1324" y="661" />
            </Array>
          </mxGeometry>
        </mxCell>
        <mxCell id="RaNbdo8rH24mwtOtZHc8-495" value="" style="curved=1;startArrow=none;endArrow=open;endSize=12;exitX=0.83;exitY=1;entryX=0.67;entryY=0;rounded=0;" edge="1" parent="1" source="RaNbdo8rH24mwtOtZHc8-359" target="RaNbdo8rH24mwtOtZHc8-420">
          <mxGeometry relative="1" as="geometry">
            <Array as="points">
              <mxPoint x="1415" y="661" />
            </Array>
          </mxGeometry>
        </mxCell>
        <mxCell id="RaNbdo8rH24mwtOtZHc8-496" value="" style="curved=1;startArrow=none;endArrow=open;endSize=12;exitX=0.16;exitY=1;entryX=0;entryY=0.24;rounded=0;" edge="1" parent="1" source="RaNbdo8rH24mwtOtZHc8-362" target="RaNbdo8rH24mwtOtZHc8-372">
          <mxGeometry relative="1" as="geometry">
            <Array as="points">
              <mxPoint x="1435" y="661" />
            </Array>
          </mxGeometry>
        </mxCell>
        <mxCell id="RaNbdo8rH24mwtOtZHc8-497" value="" style="curved=1;startArrow=none;endArrow=open;endSize=12;exitX=0.48;exitY=1;entryX=0;entryY=0.35;rounded=0;" edge="1" parent="1" source="RaNbdo8rH24mwtOtZHc8-362" target="RaNbdo8rH24mwtOtZHc8-377">
          <mxGeometry relative="1" as="geometry">
            <Array as="points">
              <mxPoint x="1641" y="661" />
            </Array>
          </mxGeometry>
        </mxCell>
        <mxCell id="RaNbdo8rH24mwtOtZHc8-498" value="" style="curved=1;startArrow=none;endArrow=open;endSize=12;exitX=0.51;exitY=1;entryX=1;entryY=0.29;rounded=0;" edge="1" parent="1" source="RaNbdo8rH24mwtOtZHc8-362" target="RaNbdo8rH24mwtOtZHc8-427">
          <mxGeometry relative="1" as="geometry">
            <Array as="points">
              <mxPoint x="1661" y="661" />
            </Array>
          </mxGeometry>
        </mxCell>
        <mxCell id="RaNbdo8rH24mwtOtZHc8-499" value="" style="curved=1;startArrow=none;endArrow=open;endSize=12;exitX=0.54;exitY=1;entryX=0;entryY=0.44;rounded=0;" edge="1" parent="1" source="RaNbdo8rH24mwtOtZHc8-362" target="RaNbdo8rH24mwtOtZHc8-445">
          <mxGeometry relative="1" as="geometry">
            <Array as="points">
              <mxPoint x="1681" y="661" />
            </Array>
          </mxGeometry>
        </mxCell>
        <mxCell id="RaNbdo8rH24mwtOtZHc8-500" value="" style="curved=1;startArrow=none;endArrow=open;endSize=12;exitX=0.86;exitY=1;entryX=1;entryY=0.29;rounded=0;" edge="1" parent="1" source="RaNbdo8rH24mwtOtZHc8-362" target="RaNbdo8rH24mwtOtZHc8-420">
          <mxGeometry relative="1" as="geometry">
            <Array as="points">
              <mxPoint x="1878" y="661" />
            </Array>
          </mxGeometry>
        </mxCell>
        <mxCell id="RaNbdo8rH24mwtOtZHc8-501" value="" style="curved=1;startArrow=none;endArrow=open;endSize=12;exitX=0.05;exitY=1;entryX=1;entryY=0.43;rounded=0;" edge="1" parent="1" source="RaNbdo8rH24mwtOtZHc8-365" target="RaNbdo8rH24mwtOtZHc8-372">
          <mxGeometry relative="1" as="geometry">
            <Array as="points">
              <mxPoint x="4614" y="661" />
            </Array>
          </mxGeometry>
        </mxCell>
        <mxCell id="RaNbdo8rH24mwtOtZHc8-502" value="" style="curved=1;startArrow=none;endArrow=open;endSize=12;exitX=0.68;exitY=1;entryX=1;entryY=0.36;rounded=0;" edge="1" parent="1" source="RaNbdo8rH24mwtOtZHc8-365" target="RaNbdo8rH24mwtOtZHc8-377">
          <mxGeometry relative="1" as="geometry">
            <Array as="points">
              <mxPoint x="4996" y="661" />
            </Array>
          </mxGeometry>
        </mxCell>
        <mxCell id="RaNbdo8rH24mwtOtZHc8-503" value="" style="curved=1;startArrow=none;endArrow=open;endSize=12;exitX=0.71;exitY=1;entryX=0;entryY=0.11;rounded=0;" edge="1" parent="1" source="RaNbdo8rH24mwtOtZHc8-365" target="RaNbdo8rH24mwtOtZHc8-450">
          <mxGeometry relative="1" as="geometry">
            <Array as="points">
              <mxPoint x="5016" y="661" />
            </Array>
          </mxGeometry>
        </mxCell>
        <mxCell id="RaNbdo8rH24mwtOtZHc8-504" value="" style="curved=1;startArrow=none;endArrow=open;endSize=12;exitX=0.75;exitY=1;entryX=0.99;entryY=0.42;rounded=0;" edge="1" parent="1" source="RaNbdo8rH24mwtOtZHc8-365" target="RaNbdo8rH24mwtOtZHc8-445">
          <mxGeometry relative="1" as="geometry">
            <Array as="points">
              <mxPoint x="5036" y="661" />
            </Array>
          </mxGeometry>
        </mxCell>
        <mxCell id="RaNbdo8rH24mwtOtZHc8-505" value="" style="curved=1;startArrow=none;endArrow=open;endSize=12;exitX=1;exitY=0.88;entryX=0;entryY=0.38;rounded=0;" edge="1" parent="1" source="RaNbdo8rH24mwtOtZHc8-365" target="RaNbdo8rH24mwtOtZHc8-435">
          <mxGeometry relative="1" as="geometry">
            <Array as="points">
              <mxPoint x="5289" y="661" />
            </Array>
          </mxGeometry>
        </mxCell>
        <mxCell id="RaNbdo8rH24mwtOtZHc8-506" value="" style="curved=1;startArrow=none;endArrow=open;endSize=12;exitX=0;exitY=0.95;entryX=1;entryY=0.38;rounded=0;" edge="1" parent="1" source="RaNbdo8rH24mwtOtZHc8-447" target="RaNbdo8rH24mwtOtZHc8-377">
          <mxGeometry relative="1" as="geometry">
            <Array as="points">
              <mxPoint x="5309" y="661" />
            </Array>
          </mxGeometry>
        </mxCell>
        <mxCell id="RaNbdo8rH24mwtOtZHc8-507" value="" style="curved=1;startArrow=none;endArrow=open;endSize=12;exitX=0;exitY=0.97;entryX=0.99;entryY=0;rounded=0;" edge="1" parent="1" source="RaNbdo8rH24mwtOtZHc8-447" target="RaNbdo8rH24mwtOtZHc8-412">
          <mxGeometry relative="1" as="geometry">
            <Array as="points">
              <mxPoint x="5329" y="661" />
            </Array>
          </mxGeometry>
        </mxCell>
        <mxCell id="RaNbdo8rH24mwtOtZHc8-508" value="" style="curved=1;startArrow=none;endArrow=open;endSize=12;exitX=0;exitY=1;entryX=0.18;entryY=0;rounded=0;" edge="1" parent="1" source="RaNbdo8rH24mwtOtZHc8-447" target="RaNbdo8rH24mwtOtZHc8-450">
          <mxGeometry relative="1" as="geometry">
            <Array as="points">
              <mxPoint x="5349" y="661" />
            </Array>
          </mxGeometry>
        </mxCell>
        <mxCell id="RaNbdo8rH24mwtOtZHc8-509" value="" style="curved=1;startArrow=none;endArrow=open;endSize=12;exitX=0.25;exitY=1;entryX=1;entryY=0.45;rounded=0;" edge="1" parent="1" source="RaNbdo8rH24mwtOtZHc8-447" target="RaNbdo8rH24mwtOtZHc8-372">
          <mxGeometry relative="1" as="geometry">
            <Array as="points">
              <mxPoint x="5527" y="661" />
            </Array>
          </mxGeometry>
        </mxCell>
        <mxCell id="RaNbdo8rH24mwtOtZHc8-510" value="" style="curved=1;startArrow=none;endArrow=open;endSize=12;exitX=0.27;exitY=1;entryX=0.99;entryY=0.44;rounded=0;" edge="1" parent="1" source="RaNbdo8rH24mwtOtZHc8-447" target="RaNbdo8rH24mwtOtZHc8-445">
          <mxGeometry relative="1" as="geometry">
            <Array as="points">
              <mxPoint x="5547" y="661" />
            </Array>
          </mxGeometry>
        </mxCell>
        <mxCell id="RaNbdo8rH24mwtOtZHc8-511" value="" style="curved=1;startArrow=none;endArrow=open;endSize=12;exitX=0.79;exitY=1;entryX=0.09;entryY=0;rounded=0;" edge="1" parent="1" source="RaNbdo8rH24mwtOtZHc8-447" target="RaNbdo8rH24mwtOtZHc8-435">
          <mxGeometry relative="1" as="geometry">
            <Array as="points">
              <mxPoint x="5919" y="661" />
            </Array>
          </mxGeometry>
        </mxCell>
      </root>
    </mxGraphModel>
  </diagram>
</mxfile>
